<svg xmlns="http://www.w3.org/2000/svg" viewBox="0 0 1148.84 592.49"><defs><style>.cls-1{font-size:250px;font-family:Poppins-Bold, Poppins;font-weight:700;letter-spacing:-0.02em;}.cls-1,.cls-6{fill:#231f20;}.cls-2{fill:#d13f3f;}.cls-3{fill:#fff;}.cls-4{fill:#bababa;}.cls-5{fill:none;stroke:#231f20;stroke-linecap:round;stroke-linejoin:round;stroke-width:31.81px;}</style></defs><g id="Capa_2" data-name="Capa 2"><g id="Text"><text id="Food_Book" data-name="Food Book" class="cls-1" transform="translate(511.18 221.69)">Food<tspan x="0" y="219.3">Book</tspan></text></g><g id="Design"><g id="Simbolo"><circle class="cls-2" cx="309.3" cy="317.9" r="173.59"/><polygon class="cls-3" points="434.07 323.53 333.97 347 229.27 395.57 183.13 328.38 147.52 356.72 67.23 372.44 28.52 338.76 32.57 288.71 67.46 266.16 29.76 223.15 16.3 163.66 47.38 99.41 99.35 78.26 149.58 81.23 179.9 101.73 206.2 49.12 242.02 22.16 295.89 22.16 348.75 42.2 371.09 70.17 384.83 104.55 381.45 160.83 368.5 201.3 371.65 223.15 434.07 323.53"/><path class="cls-4" d="M163.51,89.06s-80,143.59,48.12,188l14.44,17.87s6.85,44.78,59.06,55.1l-57.07,43.5-48-66.5-62.52,40-58.28-9.72L23.52,316.68l36.37-48.6L33.18,223.15,27.72,141.8,72.08,82.41l62.1-6Z"/><path class="cls-5" d="M452.58,357.9c11-57.44-125.47-33.44-228.47,43.74-12-26-25.2-55.2-45.48-76.14a2.59,2.59,0,0,0-4,.29c-4.58,6.53-18,19.92-19.73,21.55-24.13,22.82-57.57,35.38-90.31,24.27-24.31-8.26-41.34-31.09-41.12-57.08.16-19.31,14.38-35.89,31.2-43.85a72,72,0,0,1,12.77-4.52c3.23-.83-1.2-3.47-2.29-4.34-2.17-1.72-4.37-3.41-6.56-5.11-3.34-2.58-7-5.06-10-8.13-27.06-28.37-40.63-67.37-28-106C30.45,112.77,51.39,89.32,81,78.68c18.36-6.6,39.54-6.07,58.2-1,20.86,5.67,32.62,16.64,45.27,32.66.33.41,1.06.27,1.08-.25.59-18.37,2.79-35.7,11.21-52.07,9.42-18.29,29.42-30.9,48.69-37a110.51,110.51,0,0,1,54.31-3,106,106,0,0,1,26.78,9c29,14.48,48.59,42.8,57.2,73.53,8.87,31.61,5.83,66.51-7.57,96.75-1.72,3.87-6.69,16.48-9,19.55,16.73,24.15,35.1,47.35,52.91,70.7q9.24,12.12,18.66,24.1c9.33,11.81,17.94,26.25,14.83,42.12-3,15.4-13.78,28.3-25.17,38.49-16.94,15.16-37.19,26.69-57.92,35.72-141.24,61.53-137.19-1.21-13.34-44.11"/><path class="cls-6" d="M276,70.17a28.2,28.2,0,0,1,7.19,1.28A44.62,44.62,0,0,1,290,74.14a50.16,50.16,0,0,1,12.13,8.47,55.67,55.67,0,0,1,15.35,25.85,63.06,63.06,0,0,1,2.06,15c0,1.25-.05,2.49-.1,3.73l-.08,1.86-.21,1.84q-.23,1.84-.48,3.66c-.24,1.2-.49,2.4-.76,3.59a58.66,58.66,0,0,1-2,7c-.77,2.28-1.83,4.46-2.79,6.64s-2.29,4.21-3.55,6.23a59,59,0,0,1-4.41,5.73,67.52,67.52,0,0,1-.41-7.1c-.16-2.33-.19-4.57-.25-6.8l-.15-3.31c-.05-1.09,0-2.17-.13-3.25-.16-2.16-.17-4.27-.39-6.36l-.22-3.11c-.11-1-.23-2-.32-3.06l-.14-1.52-.22-1.5-.39-3c-.64-3.94-1.42-7.76-2.39-11.52a94,94,0,0,0-8.95-21.66,121.48,121.48,0,0,0-6.77-10.57C281.9,77.38,279.16,73.87,276,70.17Z"/><path class="cls-6" d="M311.27,218.3a123.4,123.4,0,0,1,4.94,13.56c1.38,4.42,2.62,8.77,3.89,13s2.54,8.47,4,12.66c.74,2.09,1.51,4.2,2.39,6.32s1.87,4.27,2.94,6.63a21.09,21.09,0,0,1-6.71-3.73,31.06,31.06,0,0,1-5.3-5.57,43.18,43.18,0,0,1-6.61-13.57A52.4,52.4,0,0,1,308.71,233a48.31,48.31,0,0,1,.57-7.39A31.4,31.4,0,0,1,311.27,218.3Z"/><path class="cls-6" d="M244.45,228a24.94,24.94,0,0,1,7.27,2.33c1.13.56,2.24,1.17,3.32,1.83.54.33,1.06.69,1.58,1.05a16.68,16.68,0,0,1,1.54,1.11,42,42,0,0,1,10.18,11.23l1,1.62.87,1.7c.55,1.15,1.16,2.27,1.61,3.47a39.88,39.88,0,0,1,2.15,7.32,32.36,32.36,0,0,1-.4,15.09c-.71-1.11-1.34-2.21-1.89-3.29s-1-2.16-1.65-3.19-1.12-2.07-1.61-3.1-1.14-2-1.64-3l-.79-1.49a13.79,13.79,0,0,0-.8-1.46c-.59-1-1.1-1.93-1.64-2.89s-1.16-1.88-1.7-2.83l-.82-1.42-.9-1.38-.87-1.4a14.21,14.21,0,0,0-.9-1.38c-.61-.91-1.22-1.84-1.81-2.78s-1.28-1.8-1.88-2.75-1.31-1.82-1.95-2.77C250.13,235.9,247.38,232.22,244.45,228Z"/><path class="cls-6" d="M206.2,265.65c3.4,3.7,6.35,7.11,9.32,10.49s5.8,6.68,8.72,9.94c.34.43.72.83,1.09,1.23l1.1,1.22c.72.83,1.44,1.66,2.19,2.46s1.49,1.63,2.2,2.5,1.51,1.63,2.25,2.49c1.43,1.75,3,3.35,4.48,5.21a61.7,61.7,0,0,1,4.47,5.74,29.64,29.64,0,0,1-3.66-.74,26,26,0,0,1-3.54-1.11,41.76,41.76,0,0,1-6.58-3.22c-1-.64-2.09-1.28-3.09-2s-1.93-1.5-2.89-2.26a31.74,31.74,0,0,1-2.73-2.46c-.86-.87-1.75-1.71-2.54-2.65a47.12,47.12,0,0,1-7.92-12.36,39,39,0,0,1-2.29-7A24.45,24.45,0,0,1,206.2,265.65Z"/><path class="cls-6" d="M95.71,123c-.27,2.44-.57,4.76-.89,7l-1,6.75c-.65,4.42-1.25,8.74-1.83,13a226.15,226.15,0,0,0-2.19,24.66c-.12,4,0,8,.29,11.91a92.36,92.36,0,0,0,1.55,11.83c1.4,8,4.23,15.89,7.67,25-1.12-.47-2.19-1-3.27-1.6l-1.6-.89c-.53-.31-1-.68-1.5-1-1-.68-2-1.43-3-2.17s-1.8-1.64-2.72-2.47c-.45-.43-.88-.86-1.32-1.3l-1.22-1.39c-.8-.95-1.64-1.88-2.37-2.89s-1.41-2-2.11-3.1-1.26-2.16-1.88-3.26l-.88-1.67c-.29-.57-.52-1.15-.77-1.72-.48-1.16-1-2.32-1.43-3.51s-.79-2.39-1.16-3.6-.61-2.44-.9-3.67A62.16,62.16,0,0,1,71.87,174a72.32,72.32,0,0,1,6.65-28.26,70.32,70.32,0,0,1,7.24-12.35,61.53,61.53,0,0,1,4.57-5.51A37.86,37.86,0,0,1,95.71,123Z"/><path class="cls-6" d="M292.18,424.56a30.22,30.22,0,0,0-5.07,5.41,9.18,9.18,0,0,0-1.19,7.86,7.85,7.85,0,0,0,2.81,3.82A8.23,8.23,0,0,0,293,443a33.87,33.87,0,0,0,8.11-.39,3.45,3.45,0,0,0,2.07-1.58,3.46,3.46,0,0,0-3.91-5.08c-.72.11.76-.08-.16,0l-.84.08-1.46.07c-1,0-2,0-3.06,0a3,3,0,0,1-.85-.05l.5.08-.42-.08c-.19,0-.4-.15-.6-.18.51.23.59.26.26.09l-.15-.09c-.51-.26.69.58,0,0-.43-.39.44.7.12.16-.08-.15-.16-.32-.25-.46.22.56.27.68.14.34,0-.08-.05-.17-.08-.25a2.15,2.15,0,0,1-.13-.6l.08.56c0-.11,0-.23,0-.35s0-.35,0-.53c0,1-.05.36,0,0,0-.16.24-.52.22-.67l-.19.45c.05-.13.11-.25.17-.37a10.24,10.24,0,0,1,.7-1.14c.49-.69-.43.46,0,0,.14-.16.28-.33.43-.48.33-.36.67-.7,1-1,.73-.69,1.49-1.35,2.22-2a3.46,3.46,0,0,0-4.89-4.89Z"/></g></g></g></svg>